<?xml version="1.0" standalone="no"?><!DOCTYPE svg PUBLIC "-//W3C//DTD SVG 1.1//EN" "http://www.w3.org/Graphics/SVG/1.1/DTD/svg11.dtd"><svg t="1647770729282" class="icon" viewBox="0 0 1024 1024" version="1.1" xmlns="http://www.w3.org/2000/svg" p-id="1700" xmlns:xlink="http://www.w3.org/1999/xlink" width="200" height="200"><defs><style type="text/css"></style></defs><path d="M438.784 61.824c40.64-81.28 113.728-81.28 154.304 0L1007.36 833.28c40.64 81.28 0 146.24-89.344 146.24H105.792c-89.344 0-129.92-65.024-89.344-146.24L438.848 61.824z" fill="#ea9518" p-id="1701" data-spm-anchor-id="a313x.7781069.0.i1" class="selected"></path><path d="M495.68 272.96c-24.384 0-40.64 16.256-40.64 40.64l16.256 341.12c0 24.32 16.256 40.576 40.576 40.576 24.384 0 40.64-16.256 40.64-40.576l16.256-341.12c0-24.384-16.256-40.64-40.64-40.64h-32.448z m16.192 479.168c-16.192 0-32.448 8.128-48.704 16.256-16.256 16.256-24.32 32.512-24.32 48.768 0 16.192 8.064 32.448 24.32 48.704s32.512 24.32 48.704 24.32c16.256 0 40.64-8.064 48.768-16.192 16.256-16.256 24.32-32.512 24.32-48.768 0-16.192-8.064-40.576-24.32-48.64-8.128-16.32-24.384-24.448-48.768-24.448z" fill="#ffffff" p-id="1702" data-spm-anchor-id="a313x.7781069.0.i10" class=""></path></svg>